<svg width="24" height="24" viewBox="0 0 24 24" fill="none" xmlns="http://www.w3.org/2000/svg">
<path d="M19.4528 19.456L19.4529 19.4559C23.5653 15.3485 23.5655 8.65664 19.4528 4.53898C17.4611 2.54727 14.8177 1.45204 11.9994 1.45204C9.18607 1.45204 6.53759 2.54728 4.54589 4.53898C0.612559 8.47231 0.418424 14.8156 4.10273 18.9779L4.10311 18.9783C4.30394 19.2079 4.35648 19.5304 4.23511 19.8079C4.23509 19.808 4.23508 19.808 4.23506 19.808L4.14345 19.768C3.60744 20.9965 2.97294 21.8983 2.22307 22.5028L19.4528 19.456ZM19.4528 19.456C17.4611 21.4477 14.8127 22.5429 11.9994 22.5429C10.1172 22.5429 8.27002 22.04 6.66201 21.0941L6.66091 21.0935C6.54221 21.0257 6.40465 20.9848 6.26952 20.9848C6.10175 20.9848 5.92999 21.0423 5.79234 21.1455L5.79112 21.1465C4.47626 22.1649 3.15455 22.4297 2.39298 22.4916L19.4528 19.456ZM0.786983 21.7038L0.786889 21.7039C0.310534 21.9393 0.0424724 22.4539 0.119047 22.979L0.119179 22.9799C0.201137 23.5099 0.606348 23.9212 1.13759 24.0033L1.13795 24.0034C1.40865 24.0442 1.70016 24.0698 2.0023 24.0698C3.47781 24.0698 5.02439 23.5681 6.32111 22.6893C8.06127 23.6134 10.013 24.1 11.9994 24.1C15.2326 24.1 18.2687 22.843 20.5543 20.5574C22.8398 18.2718 24.0969 15.2307 24.0969 12.0025C24.0969 8.77435 22.8398 5.7332 20.5543 3.44761C18.2688 1.16212 15.2327 -0.1 11.9994 -0.1C8.76616 -0.1 5.73004 1.15702 3.44447 3.44259C-0.949384 7.83644 -1.28186 14.8472 2.60288 19.6206C2.07623 20.6788 1.46079 21.3717 0.786983 21.7038Z" fill="white" stroke="white" stroke-width="0.2"/>
<path d="M4.75214 10.5603C4.75224 11.6863 5.19568 12.7392 5.98693 13.5357L5.98728 13.536L11.4105 18.9593C11.5692 19.1179 11.7832 19.2042 11.9941 19.2042C12.202 19.2042 12.4169 19.125 12.5776 18.9644C12.5776 18.9643 12.5776 18.9643 12.5776 18.9643L18.0158 13.5463L18.016 13.5461C18.813 12.749 19.2511 11.6906 19.2511 10.5701C19.2511 9.44467 18.8131 8.38639 18.0213 7.58936L18.021 7.58901C17.2239 6.79195 16.1655 6.35388 15.045 6.35388C13.9195 6.35388 12.8611 6.79188 12.0639 7.58901L11.9991 7.65384L11.9343 7.58901C11.1371 6.79188 10.0787 6.35388 8.95324 6.35388C7.83288 6.35388 6.7744 6.79185 5.98226 7.58399C5.18529 8.38096 4.74702 9.43947 4.75214 10.5603ZM4.75214 10.5603C4.75214 10.5602 4.75214 10.5601 4.75214 10.56H4.90214L4.75215 10.5607C4.75215 10.5606 4.75214 10.5605 4.75214 10.5603ZM17.594 10.564V10.565C17.594 11.2488 17.3285 11.8891 16.844 12.3737C16.844 12.3738 16.8439 12.3739 16.8438 12.3739L11.9943 17.2038L7.15439 12.3639C6.66978 11.8793 6.40419 11.2389 6.40419 10.555C6.40419 9.87087 6.66993 9.23053 7.14936 8.75109C7.62879 8.27166 8.26914 8.00592 8.95324 8.00592C9.63713 8.00592 10.2775 8.27151 10.7621 8.75612L11.4156 9.40952C11.7405 9.73449 12.2627 9.73449 12.5877 9.40952L13.2361 8.76115C13.7207 8.27654 14.3611 8.01094 15.045 8.01094C15.7237 8.01094 16.3641 8.27643 16.8488 8.76115C17.3336 9.24588 17.5988 9.88602 17.594 10.564Z" fill="white" stroke="white" stroke-width="0.3"/>
</svg>
